<svg width="25" height="25" viewBox="0 0 25 25" fill="none" xmlns="http://www.w3.org/2000/svg">
<path d="M15.9469 8.17012C15.0382 9.0182 13.7989 9.50011 12.5 9.50011C11.2011 9.50011 9.96175 9.0182 9.05309 8.17012C8.14559 7.32312 7.64286 6.18202 7.64286 5.00011C7.64286 3.8182 8.14559 2.6771 9.05309 1.8301C9.96175 0.982018 11.2011 0.500111 12.5 0.500111C13.7989 0.500111 15.0382 0.982018 15.9469 1.8301C16.8544 2.6771 17.3571 3.8182 17.3571 5.00011C17.3571 6.18202 16.8544 7.32312 15.9469 8.17012ZM0.512038 24.5001C0.574229 23.2092 0.876896 21.9362 1.40852 20.7383C2.00872 19.3859 2.88949 18.1547 4.00232 17.1161C5.11523 16.0773 6.43829 15.2517 7.89675 14.6879C9.35525 14.124 10.9195 13.8334 12.5 13.8334C14.0805 13.8334 15.6447 14.124 17.1032 14.6879C18.5617 15.2517 19.8848 16.0773 20.9977 17.1161C22.1105 18.1547 22.9913 19.3859 23.5915 20.7383C24.1231 21.9362 24.4258 23.2092 24.488 24.5001H0.512038Z" stroke="black"/>
</svg>
