<svg width="24" height="27" viewBox="0 0 24 27" fill="none" xmlns="http://www.w3.org/2000/svg">
<path d="M1 23.6562C1 24.9502 2.0498 26 3.34375 26H20.5312C21.8252 26 22.875 24.9502 22.875 23.6562V10.375H1V23.6562ZM16.625 14.0859C16.625 13.7637 16.8887 13.5 17.2109 13.5H19.1641C19.4863 13.5 19.75 13.7637 19.75 14.0859V16.0391C19.75 16.3613 19.4863 16.625 19.1641 16.625H17.2109C16.8887 16.625 16.625 16.3613 16.625 16.0391V14.0859ZM16.625 20.3359C16.625 20.0137 16.8887 19.75 17.2109 19.75H19.1641C19.4863 19.75 19.75 20.0137 19.75 20.3359V22.2891C19.75 22.6113 19.4863 22.875 19.1641 22.875H17.2109C16.8887 22.875 16.625 22.6113 16.625 22.2891V20.3359ZM10.375 14.0859C10.375 13.7637 10.6387 13.5 10.9609 13.5H12.9141C13.2363 13.5 13.5 13.7637 13.5 14.0859V16.0391C13.5 16.3613 13.2363 16.625 12.9141 16.625H10.9609C10.6387 16.625 10.375 16.3613 10.375 16.0391V14.0859ZM10.375 20.3359C10.375 20.0137 10.6387 19.75 10.9609 19.75H12.9141C13.2363 19.75 13.5 20.0137 13.5 20.3359V22.2891C13.5 22.6113 13.2363 22.875 12.9141 22.875H10.9609C10.6387 22.875 10.375 22.6113 10.375 22.2891V20.3359ZM4.125 14.0859C4.125 13.7637 4.38867 13.5 4.71094 13.5H6.66406C6.98633 13.5 7.25 13.7637 7.25 14.0859V16.0391C7.25 16.3613 6.98633 16.625 6.66406 16.625H4.71094C4.38867 16.625 4.125 16.3613 4.125 16.0391V14.0859ZM4.125 20.3359C4.125 20.0137 4.38867 19.75 4.71094 19.75H6.66406C6.98633 19.75 7.25 20.0137 7.25 20.3359V22.2891C7.25 22.6113 6.98633 22.875 6.66406 22.875H4.71094C4.38867 22.875 4.125 22.6113 4.125 22.2891V20.3359ZM20.5312 4.125H18.1875V1.78125C18.1875 1.35156 17.8359 1 17.4062 1H15.8438C15.4141 1 15.0625 1.35156 15.0625 1.78125V4.125H8.8125V1.78125C8.8125 1.35156 8.46094 1 8.03125 1H6.46875C6.03906 1 5.6875 1.35156 5.6875 1.78125V4.125H3.34375C2.0498 4.125 1 5.1748 1 6.46875V8.8125H22.875V6.46875C22.875 5.1748 21.8252 4.125 20.5312 4.125Z" stroke="black"/>
</svg>
