<svg width="25" height="25" viewBox="0 0 25 25" fill="none" xmlns="http://www.w3.org/2000/svg">
<path d="M0.893362 24.8584C1.16298 24.9636 1.4657 25.0117 1.76903 24.9976C2.07236 24.9835 2.36484 24.9077 2.61508 24.7784L24.2825 13.5278C24.5039 13.4127 24.6848 13.2592 24.8098 13.0802C24.9347 12.9013 25 12.7022 25 12.5002C25 12.2982 24.9347 12.0992 24.8098 11.9203C24.6848 11.7413 24.5039 11.5877 24.2825 11.4727L2.61508 0.22209C2.36503 0.0923241 2.07242 0.0163356 1.76891 0.00235233C1.46541 -0.0116309 1.16259 0.0369241 0.893245 0.14276C0.623897 0.248596 0.398285 0.407679 0.240836 0.602785C0.0833874 0.797891 0.000102642 1.02158 2.26393e-08 1.24964V23.7508C-5.01139e-05 23.979 0.0831745 24.2029 0.240653 24.3981C0.398132 24.5933 0.623857 24.7525 0.893362 24.8584Z" fill="#2CDDE9"/>
</svg>
