<svg width="25" height="25" viewBox="0 0 25 25" fill="none" xmlns="http://www.w3.org/2000/svg">
<path d="M24.4826 12.2951L13.1237 0.273749C13.0419 0.186959 12.9448 0.118104 12.8379 0.0711237C12.7309 0.0241438 12.6163 -3.8147e-05 12.5005 -3.8147e-05C12.3847 -3.8147e-05 12.2701 0.0241438 12.1631 0.0711237C12.0562 0.118104 11.9591 0.186959 11.8773 0.273749L0.518427 12.2951C0.187506 12.6456 -1.52588e-05 13.1217 -1.52588e-05 13.6182C-1.52588e-05 14.6492 0.791436 15.4874 1.76489 15.4874H2.96172V24.0654C2.96172 24.5823 3.35607 25 3.84418 25H10.7356V18.4577H13.8242V25H21.1568C21.6449 25 22.0393 24.5823 22.0393 24.0654V15.4874H23.2361C23.7049 15.4874 24.1544 15.2917 24.4853 14.9383C25.172 14.2082 25.172 13.0253 24.4826 12.2951Z" fill="black"/>
</svg>
