<svg width="27" height="27" viewBox="0 0 27 27" fill="none" xmlns="http://www.w3.org/2000/svg">
<path d="M5.0625 4.57143H3.1875C2.66992 4.57143 2.25 5.17411 2.25 5.91071V11.7143C1.55977 11.7143 1 12.5123 1 13.5C1 14.486 1.55977 15.2857 2.21484 15.2857L2.25 21.0893C2.25 21.8315 2.66992 22.4286 3.1875 22.4286H5.0625C5.58203 22.4286 6 21.8315 6 21.0893V5.91071C6 5.17411 5.58203 4.57143 5.0625 4.57143ZM18.8125 1H16.9375C16.4219 1 16 1.59989 16 2.33929V11.7143H11V2.33929C11 1.59989 10.582 1 10.0625 1H8.1875C7.67188 1 7.25 1.59989 7.25 2.33929V24.6607C7.25 25.4029 7.67188 26 8.1875 26H10.0625C10.582 26 11 25.4029 11 24.6607V15.2857H16V24.6607C16 25.4001 16.4199 26 16.9375 26H18.8125C19.3301 26 19.75 25.4001 19.75 24.6607V2.33929C19.75 1.59989 19.332 1 18.8125 1ZM24.75 11.7143V5.91071C24.75 5.17411 24.332 4.57143 23.8125 4.57143H21.9375C21.4219 4.57143 21 5.17411 21 5.91071V21.0893C21 21.8287 21.4199 22.4286 21.9375 22.4286H23.8125C24.3301 22.4286 24.75 21.8287 24.75 21.0893V15.2857C25.4402 15.2857 26 14.486 26 13.5C26 12.5123 25.4414 11.7143 24.75 11.7143Z" stroke="black"/>
</svg>
