<svg width="25" height="25" viewBox="0 0 25 25" fill="none" xmlns="http://www.w3.org/2000/svg">
<path d="M4.0625 3.57143H2.1875C1.66992 3.57143 1.25 4.17411 1.25 4.91071V10.7143C0.559766 10.7143 0 11.5123 0 12.5C0 13.486 0.559766 14.2857 1.21484 14.2857L1.25 20.0893C1.25 20.8315 1.66992 21.4286 2.1875 21.4286H4.0625C4.58203 21.4286 5 20.8315 5 20.0893V4.91071C5 4.17411 4.58203 3.57143 4.0625 3.57143ZM17.8125 0H15.9375C15.4219 0 15 0.599888 15 1.33929V10.7143H10V1.33929C10 0.599888 9.58203 0 9.0625 0H7.1875C6.67188 0 6.25 0.599888 6.25 1.33929V23.6607C6.25 24.4029 6.67188 25 7.1875 25H9.0625C9.58203 25 10 24.4029 10 23.6607V14.2857H15V23.6607C15 24.4001 15.4199 25 15.9375 25H17.8125C18.3301 25 18.75 24.4001 18.75 23.6607V1.33929C18.75 0.599888 18.332 0 17.8125 0ZM23.75 10.7143V4.91071C23.75 4.17411 23.332 3.57143 22.8125 3.57143H20.9375C20.4219 3.57143 20 4.17411 20 4.91071V20.0893C20 20.8287 20.4199 21.4286 20.9375 21.4286H22.8125C23.3301 21.4286 23.75 20.8287 23.75 20.0893V14.2857C24.4402 14.2857 25 13.486 25 12.5C25 11.5123 24.4414 10.7143 23.75 10.7143Z" fill="black"/>
</svg>
