<svg width="27" height="27" viewBox="0 0 27 27" fill="none" xmlns="http://www.w3.org/2000/svg">
<path d="M0.744852 14.0918L23.3173 25.8103C23.5778 25.9455 23.8827 26.0247 24.1989 26.0392C24.515 26.0538 24.8305 26.0032 25.1111 25.893C25.3917 25.7827 25.6267 25.617 25.7908 25.4138C25.9548 25.2106 26.0416 24.9776 26.0417 24.74V1.30293C26.0419 1.06527 25.9553 0.832102 25.7914 0.628693C25.6275 0.425285 25.3925 0.259395 25.1119 0.149C24.8312 0.0386058 24.5156 -0.0120821 24.1993 0.00243026C23.883 0.0169426 23.578 0.0961016 23.3173 0.231328L0.744852 11.9499C0.514888 12.0702 0.327082 12.2305 0.197401 12.4169C0.0677199 12.6034 0 12.8105 0 13.0208C0 13.2311 0.0677199 13.4383 0.197401 13.6248C0.327082 13.8112 0.514888 13.9714 0.744852 14.0918Z" fill="#2CDDE9"/>
</svg>
