<svg width="27" height="27" viewBox="0 0 27 27" fill="none" xmlns="http://www.w3.org/2000/svg">
<path d="M25.4826 13.2951L14.1237 1.27375C14.0419 1.18696 13.9448 1.1181 13.8379 1.07112C13.7309 1.02414 13.6163 0.999962 13.5005 0.999962C13.3847 0.999962 13.2701 1.02414 13.1631 1.07112C13.0562 1.1181 12.9591 1.18696 12.8773 1.27375L1.51843 13.2951C1.18751 13.6456 0.999985 14.1217 0.999985 14.6182C0.999985 15.6492 1.79144 16.4874 2.76489 16.4874H3.96172V25.0654C3.96172 25.5823 4.35607 26 4.84418 26H11.7356V19.4577H14.8242V26H22.1568C22.6449 26 23.0393 25.5823 23.0393 25.0654V16.4874H24.2361C24.7049 16.4874 25.1544 16.2917 25.4853 15.9383C26.172 15.2082 26.172 14.0253 25.4826 13.2951Z" stroke="black"/>
</svg>
