<svg width="25" height="26" viewBox="0 0 25 26" fill="none" xmlns="http://www.w3.org/2000/svg">
<path fill-rule="evenodd" clip-rule="evenodd" d="M12.5 10.4645C13.9208 10.4645 15.2834 9.93768 16.2881 9C17.2927 8.06232 17.8571 6.79055 17.8571 5.46447C17.8571 4.13838 17.2927 2.86661 16.2881 1.92893C15.2834 0.991251 13.9208 0.464466 12.5 0.464466C11.0792 0.464466 9.71659 0.991251 8.71193 1.92893C7.70727 2.86661 7.14286 4.13838 7.14286 5.46447C7.14286 6.79055 7.70727 8.06232 8.71193 9C9.71659 9.93768 11.0792 10.4645 12.5 10.4645ZM0 25.4645C-2.44606e-08 23.9324 0.323322 22.4153 0.951506 20.9998C1.57969 19.5844 2.50043 18.2982 3.66116 17.2149C4.8219 16.1315 6.19989 15.2722 7.71646 14.6859C9.23303 14.0996 10.8585 13.7978 12.5 13.7978C14.1415 13.7978 15.767 14.0996 17.2835 14.6859C18.8001 15.2722 20.1781 16.1315 21.3388 17.2149C22.4996 18.2982 23.4203 19.5844 24.0485 20.9998C24.6767 22.4153 25 23.9324 25 25.4645H0Z" fill="black"/>
</svg>
